<?xml version="1.0" standalone="no"?><!DOCTYPE svg PUBLIC "-//W3C//DTD SVG 1.1//EN" "http://www.w3.org/Graphics/SVG/1.1/DTD/svg11.dtd"><svg t="1537963447887" class="icon" style="" viewBox="0 0 1024 1024" version="1.1" xmlns="http://www.w3.org/2000/svg" p-id="2591" xmlns:xlink="http://www.w3.org/1999/xlink" width="32" height="32"><defs><style type="text/css"></style></defs><path d="M511.6 204.6c-167.9 0-307.2 139.3-307.2 307.2 0 167.9 139.3 307.2 307.2 307.2 167.9 0 307.2-139.3 307.2-307.2 0-168-139.2-307.2-307.2-307.2z m131.1 393.2c12.3 12.3 12.3 28.6 0 41-12.3 12.3-28.6 12.3-41 0l-86-86.1-90.1 90.2c-12.3 12.3-32.8 12.3-45 0-12.3-12.3-12.3-32.8 0-45l90.1-90.1-86-86.1c-12.3-12.3-12.3-28.6 0-41 12.3-12.3 28.6-12.3 41 0l86 86 90.1-90.1c12.3-12.3 32.8-12.3 45 0 12.2 12.3 12.3 32.8 0 45l-90.1 90.1 86 86.1z m0 0" p-id="2592" fill="#d9d9d9"></path></svg>