<?xml version="1.0" standalone="no"?><!DOCTYPE svg PUBLIC "-//W3C//DTD SVG 1.1//EN" "http://www.w3.org/Graphics/SVG/1.1/DTD/svg11.dtd"><svg t="1537776845479" class="icon" style="" viewBox="0 0 1024 1024" version="1.1" xmlns="http://www.w3.org/2000/svg" p-id="2771" xmlns:xlink="http://www.w3.org/1999/xlink" width="16" height="16"><defs><style type="text/css"></style></defs><path d="M19.608447 111.682895a63.940589 63.940589 0 0 1 0-92.074448 63.940589 63.940589 0 0 1 92.074448 0l892.894796 891.189714a66.214032 66.214032 0 1 1-93.77953 93.77953z m0 0" fill="#18c406" p-id="2772"></path><path d="M910.798161 19.608447a65.929851 65.929851 0 0 1 93.77953 0 67.066573 67.066573 0 0 1 0 92.074448L111.682895 1004.577691a67.066573 67.066573 0 0 1-92.074448 0 65.929851 65.929851 0 0 1 0-93.77953z m0 0" fill="#18c406" p-id="2773"></path></svg>