<?xml version="1.0" standalone="no"?><!DOCTYPE svg PUBLIC "-//W3C//DTD SVG 1.1//EN" "http://www.w3.org/Graphics/SVG/1.1/DTD/svg11.dtd"><svg t="1539250257998" class="icon" style="" viewBox="0 0 1024 1024" version="1.1" xmlns="http://www.w3.org/2000/svg" p-id="2992" xmlns:xlink="http://www.w3.org/1999/xlink" width="32" height="32"><defs><style type="text/css"></style></defs><path d="M878.706381 788.600689l-1.612731-1.612731c-0.013303-0.013303-0.024559-0.024559-0.036839-0.036839L602.241792 512.1361l274.184663-273.821389c0.64059-0.613984 1.267876-1.239224 1.882883-1.87879l0.717338-0.717338-0.01842-0.017396c10.629081-11.420097 17.140379-26.722618 17.140379-43.553958 0-35.322483-28.634154-63.956637-63.956637-63.956637-16.830317 0-32.133861 6.511297-43.553958 17.140379l-0.038886-0.038886-1.616824 1.616824c-0.010233 0.00921-0.019443 0.019443-0.028653 0.028653L511.999488 421.893796l-269.508153-269.508153c-11.707646-14.931061-29.897937-24.535813-50.342572-24.535813-35.322483 0-63.956637 28.634154-63.956637 63.956637 0 16.050558 5.925966 30.707372 15.691377 41.937135l-0.013303 0.013303 0.187265 0.187265c1.835811 2.093684 3.804652 4.065596 5.895267 5.903453L421.81756 512.075725l-269.436522 269.437545c-14.927991 11.707646-24.530696 29.895891-24.530696 50.338479 0 35.322483 28.634154 63.956637 63.956637 63.956637 16.050558 0 30.708396-5.925966 41.938158-15.692401l0.013303 0.013303 0.187265-0.187265c2.092661-1.834788 4.063549-3.802606 5.901407-5.89322L511.940137 602.318028l273.726222 274.091542c0.624217 0.652869 1.261737 1.291412 1.913583 1.916653l0.700965 0.701988 0.017396-0.017396c11.420097 10.628058 26.722618 17.139356 43.553958 17.139356 35.322483 0 63.956637-28.634154 63.956637-63.956637 0-16.83134-6.511297-32.133861-17.140379-43.553958L878.706381 788.600689z" p-id="2993" fill="#ffffff"></path></svg>